<svg viewBox="0 0 1024 1024" xmlns="http://www.w3.org/2000/svg"><path d="M896 810.666667a85.333333 85.333333 0 0 1-85.333333 85.333333H213.333333a85.333333 85.333333 0 0 1-85.333333-85.333333V213.333333a85.333333 85.333333 0 0 1 85.333333-85.333333h250.368a85.333333 85.333333 0 0 1 73.173334 41.429333L563.2 213.333333H810.666667a85.333333 85.333333 0 0 1 85.333333 85.333334v512z m-85.333333-341.333334H213.333333v341.333334h597.333334v-341.333334z m-346.965334-256H213.333333v170.666667h597.333334V298.666667h-271.616a42.666667 42.666667 0 0 1-36.608-20.736L463.701333 213.333333z" fill="currentColor"></path></svg>
