<svg viewBox="0 0 1024 1024" xmlns="http://www.w3.org/2000/svg"><path d="M550.528 544.128L640 539.776V678.4l178.005333-178.005333L640 322.389333v129.024l-72.618667 10.922667c-155.52 23.424-251.733333 73.557333-312.874666 164.437333 84.906667-50.602667 178.261333-76.928 296.021333-82.645333zM554.666667 629.376c-27.392 1.322667-53.034667 3.968-77.141334 7.808l-8.192 1.365333c-136.704 23.637333-224.810667 87.168-310.954666 176.128-26.154667 27.008-51.882667 59.648-51.882667 59.648-14.848 18.176-24.021333 14.037333-20.352-9.173333 0 0 4.394667-31.402667 11.690667-65.792C144.938667 577.066667 250.581333 423.68 554.666667 377.941333V209.066667a38.4 38.4 0 0 1 65.536-27.136l291.328 291.285333a38.4 38.4 0 0 1 0 54.314667l-291.328 291.285333A38.4 38.4 0 0 1 554.666667 791.637333v-162.261333z" fill="currentColor" p-id="2487"></path></svg>
